<svg width="182" height="72" viewBox="0 0 182 72" fill="none" xmlns="http://www.w3.org/2000/svg">
<path fill-rule="evenodd" clip-rule="evenodd" d="M3 6C4.65685 6 6 4.65685 6 3C6 1.34315 4.65685 0 3 0C1.34315 0 0 1.34315 0 3C0 4.65685 1.34315 6 3 6ZM3 28C4.65685 28 6 26.6569 6 25C6 23.3431 4.65685 22 3 22C1.34315 22 0 23.3431 0 25C0 26.6569 1.34315 28 3 28ZM25 28C26.6569 28 28 26.6569 28 25C28 23.3431 26.6569 22 25 22C23.3431 22 22 23.3431 22 25C22 26.6569 23.3431 28 25 28ZM50 25C50 26.6569 48.6569 28 47 28C45.3431 28 44 26.6569 44 25C44 23.3431 45.3431 22 47 22C48.6569 22 50 23.3431 50 25ZM69 28C70.6569 28 72 26.6569 72 25C72 23.3431 70.6569 22 69 22C67.3431 22 66 23.3431 66 25C66 26.6569 67.3431 28 69 28ZM94 25C94 26.6569 92.6569 28 91 28C89.3431 28 88 26.6569 88 25C88 23.3431 89.3431 22 91 22C92.6569 22 94 23.3431 94 25ZM113 28C114.657 28 116 26.6569 116 25C116 23.3431 114.657 22 113 22C111.343 22 110 23.3431 110 25C110 26.6569 111.343 28 113 28ZM138 25C138 26.6569 136.657 28 135 28C133.343 28 132 26.6569 132 25C132 23.3431 133.343 22 135 22C136.657 22 138 23.3431 138 25ZM157 28C158.657 28 160 26.6569 160 25C160 23.3431 158.657 22 157 22C155.343 22 154 23.3431 154 25C154 26.6569 155.343 28 157 28ZM182 25C182 26.6569 180.657 28 179 28C177.343 28 176 26.6569 176 25C176 23.3431 177.343 22 179 22C180.657 22 182 23.3431 182 25ZM6 47C6 48.6569 4.65685 50 3 50C1.34315 50 0 48.6569 0 47C0 45.3431 1.34315 44 3 44C4.65685 44 6 45.3431 6 47ZM28 47C28 48.6569 26.6569 50 25 50C23.3431 50 22 48.6569 22 47C22 45.3431 23.3431 44 25 44C26.6569 44 28 45.3431 28 47ZM47 50C48.6569 50 50 48.6569 50 47C50 45.3431 48.6569 44 47 44C45.3431 44 44 45.3431 44 47C44 48.6569 45.3431 50 47 50ZM72 47C72 48.6569 70.6569 50 69 50C67.3431 50 66 48.6569 66 47C66 45.3431 67.3431 44 69 44C70.6569 44 72 45.3431 72 47ZM91 50C92.6569 50 94 48.6569 94 47C94 45.3431 92.6569 44 91 44C89.3431 44 88 45.3431 88 47C88 48.6569 89.3431 50 91 50ZM116 47C116 48.6569 114.657 50 113 50C111.343 50 110 48.6569 110 47C110 45.3431 111.343 44 113 44C114.657 44 116 45.3431 116 47ZM135 50C136.657 50 138 48.6569 138 47C138 45.3431 136.657 44 135 44C133.343 44 132 45.3431 132 47C132 48.6569 133.343 50 135 50ZM160 47C160 48.6569 158.657 50 157 50C155.343 50 154 48.6569 154 47C154 45.3431 155.343 44 157 44C158.657 44 160 45.3431 160 47ZM179 50C180.657 50 182 48.6569 182 47C182 45.3431 180.657 44 179 44C177.343 44 176 45.3431 176 47C176 48.6569 177.343 50 179 50ZM25 6C26.6569 6 28 4.65685 28 3C28 1.34315 26.6569 0 25 0C23.3431 0 22 1.34315 22 3C22 4.65685 23.3431 6 25 6ZM6 69C6 70.6569 4.65685 72 3 72C1.34315 72 0 70.6569 0 69C0 67.3431 1.34315 66 3 66C4.65685 66 6 67.3431 6 69ZM28 69C28 70.6569 26.6569 72 25 72C23.3431 72 22 70.6569 22 69C22 67.3431 23.3431 66 25 66C26.6569 66 28 67.3431 28 69ZM47 72C48.6569 72 50 70.6569 50 69C50 67.3431 48.6569 66 47 66C45.3431 66 44 67.3431 44 69C44 70.6569 45.3431 72 47 72ZM72 69C72 70.6569 70.6569 72 69 72C67.3431 72 66 70.6569 66 69C66 67.3431 67.3431 66 69 66C70.6569 66 72 67.3431 72 69ZM91 72C92.6569 72 94 70.6569 94 69C94 67.3431 92.6569 66 91 66C89.3431 66 88 67.3431 88 69C88 70.6569 89.3431 72 91 72ZM116 69C116 70.6569 114.657 72 113 72C111.343 72 110 70.6569 110 69C110 67.3431 111.343 66 113 66C114.657 66 116 67.3431 116 69ZM135 72C136.657 72 138 70.6569 138 69C138 67.3431 136.657 66 135 66C133.343 66 132 67.3431 132 69C132 70.6569 133.343 72 135 72ZM160 69C160 70.6569 158.657 72 157 72C155.343 72 154 70.6569 154 69C154 67.3431 155.343 66 157 66C158.657 66 160 67.3431 160 69ZM179 72C180.657 72 182 70.6569 182 69C182 67.3431 180.657 66 179 66C177.343 66 176 67.3431 176 69C176 70.6569 177.343 72 179 72ZM47 6C48.6569 6 50 4.65685 50 3C50 1.34315 48.6569 0 47 0C45.3431 0 44 1.34315 44 3C44 4.65685 45.3431 6 47 6ZM72 3C72 4.65685 70.6569 6 69 6C67.3431 6 66 4.65685 66 3C66 1.34315 67.3431 0 69 0C70.6569 0 72 1.34315 72 3ZM91 6C92.6569 6 94 4.65685 94 3C94 1.34315 92.6569 0 91 0C89.3431 0 88 1.34315 88 3C88 4.65685 89.3431 6 91 6ZM116 3C116 4.65685 114.657 6 113 6C111.343 6 110 4.65685 110 3C110 1.34315 111.343 0 113 0C114.657 0 116 1.34315 116 3ZM135 6C136.657 6 138 4.65685 138 3C138 1.34315 136.657 0 135 0C133.343 0 132 1.34315 132 3C132 4.65685 133.343 6 135 6ZM160 3C160 4.65685 158.657 6 157 6C155.343 6 154 4.65685 154 3C154 1.34315 155.343 0 157 0C158.657 0 160 1.34315 160 3ZM179 6C180.657 6 182 4.65685 182 3C182 1.34315 180.657 0 179 0C177.343 0 176 1.34315 176 3C176 4.65685 177.343 6 179 6Z" fill="#CF6BCB"/>
</svg>
